<svg width="49" height="49" viewBox="0 0 49 49" fill="none" xmlns="http://www.w3.org/2000/svg">
<circle cx="24.0683" cy="24.0098" r="24" transform="rotate(0.0234016 24.0683 24.0098)" fill="#1877F2"/>
<path fill-rule="evenodd" clip-rule="evenodd" d="M33.4068 30.9501L34.4737 24.0127L27.8171 24.01L27.8189 19.5078C27.8197 17.6098 28.7503 15.7601 31.7318 15.7613L34.7584 15.7625L34.7608 9.85606C34.7608 9.85606 32.0143 9.38617 29.3883 9.3851C23.9059 9.38286 20.3213 12.704 20.3188 18.7193L20.3166 24.007L14.2225 24.0045L14.2197 30.9422L20.3138 30.9447L20.307 47.7163C21.5288 47.9086 22.7812 48.0089 24.0571 48.0094C25.3329 48.01 26.5854 47.9106 27.8074 47.7194L27.8143 30.9478L33.4068 30.9501Z" fill="white"/>
</svg>
