<svg width="49" height="49" viewBox="0 0 49 49" fill="none" xmlns="http://www.w3.org/2000/svg">
<circle cx="24.9902" cy="24.0098" r="24" transform="rotate(0.0234016 24.9902 24.0098)" fill="url(#paint0_radial_481_9299)"/>
<path d="M36.9906 36.0103L32.0214 36.0082L32.0246 28.2127C32.0253 26.3537 31.9931 23.9607 29.4419 23.9597C26.8537 23.9586 26.4569 25.9838 26.456 28.075L26.4528 36.0054L21.4838 36.0033L21.4903 19.9726L26.2606 19.9745L26.2597 22.1653L26.3266 22.1653C27.2985 20.5021 29.1116 19.5055 31.0343 19.5778C36.0707 19.5799 36.998 22.8987 36.9962 27.2161L36.9906 36.0103Z" fill="white"/>
<path d="M15.8844 17.7785C15.8841 17.7785 15.8839 17.7785 15.8838 17.7785C14.3018 17.7778 13.0006 16.4734 13.0013 14.8887C13.0019 13.304 14.3042 12.0005 15.8861 12.0012C17.4679 12.0018 18.769 13.3061 18.7686 14.8905C18.7686 14.8906 18.7686 14.8908 18.7686 14.8911C18.768 16.4755 17.466 17.779 15.8844 17.7785" fill="white"/>
<path d="M18.3615 36.0021L13.3873 36.0001L13.3938 19.9688L18.3681 19.9708L18.3615 36.0021Z" fill="white"/>
<defs>
<radialGradient id="paint0_radial_481_9299" cx="0" cy="0" r="1" gradientUnits="userSpaceOnUse" gradientTransform="translate(24.9902 24.0098) rotate(90) scale(24)">
<stop stop-color="#C6A000" stop-opacity="0"/>
<stop offset="1" stop-color="#1E1E1E"/>
</radialGradient>
</defs>
</svg>
