<svg width="49" height="49" viewBox="0 0 49 49" fill="none" xmlns="http://www.w3.org/2000/svg">
<circle cx="24.0097" cy="24.0098" r="24" transform="rotate(0.0234016 24.0097 24.0098)" fill="url(#paint0_radial_481_9297)"/>
<path fill-rule="evenodd" clip-rule="evenodd" d="M24.0132 8.00653C19.6678 8.00476 19.123 8.02296 17.4164 8.10012C15.7133 8.1771 14.5501 8.44713 13.5322 8.84227C12.4799 9.25066 11.5874 9.79739 10.6975 10.6865C9.80765 11.5757 9.2602 12.4678 8.85094 13.5197C8.45497 14.5373 8.184 15.7003 8.10563 17.4033C8.02706 19.1098 8.00842 19.6547 8.00665 24C8.00487 28.3453 8.02307 28.8902 8.10024 30.5968C8.17722 32.2999 8.44724 33.4631 8.84238 34.4809C9.25078 35.5333 9.79751 36.4258 10.6866 37.3157C11.5758 38.2055 12.4679 38.753 13.5198 39.1623C14.5374 39.5582 15.7004 39.8292 17.4034 39.9076C19.1099 39.9861 19.6548 40.0048 24.0001 40.0065C28.3455 40.0083 28.8903 39.9901 30.5969 39.9129C32.3 39.836 33.4632 39.5659 34.4811 39.1709C35.5334 38.7624 36.4259 38.2157 37.3158 37.3266C38.2056 36.4374 38.7531 35.5453 39.1624 34.4933C39.5583 33.4758 39.8293 32.3128 39.9077 30.6098C39.9862 28.9033 40.0049 28.3584 40.0066 24.0131C40.0084 19.6677 39.9902 19.1229 39.9131 17.4163C39.8361 15.7132 39.5661 14.55 39.171 13.5321C38.7625 12.4798 38.2158 11.5873 37.3267 10.6974C36.4375 9.80754 35.5454 9.26008 34.4934 8.85083C33.4759 8.45486 32.3129 8.18388 30.6099 8.10551C28.9034 8.02695 28.3585 8.00831 24.0132 8.00653ZM24.012 10.8894C28.2842 10.8912 28.7902 10.9077 30.4773 10.9854C32.0373 11.0571 32.8844 11.3181 33.4481 11.5375C34.1948 11.828 34.7277 12.175 35.2873 12.7351C35.847 13.2952 36.1935 13.8283 36.4834 14.5753C36.7023 15.1392 36.9626 15.9865 37.0331 17.5465C37.1094 19.2336 37.1255 19.7397 37.1238 24.0119C37.122 28.2841 37.1055 28.7901 37.0278 30.4772C36.9561 32.0372 36.6951 32.8843 36.4757 33.448C36.1852 34.1947 35.8382 34.7275 35.2781 35.2872C34.718 35.8469 34.1849 36.1934 33.4379 36.4833C32.874 36.7022 32.0267 36.9625 30.4667 37.033C28.7798 37.1093 28.2738 37.1254 24.0013 37.1237C19.7288 37.1219 19.2229 37.1054 17.536 37.0277C15.976 36.9559 15.1289 36.6949 14.5652 36.4756C13.8185 36.185 13.2856 35.8381 12.726 35.278C12.1664 34.7179 11.8198 34.1847 11.5299 33.4378C11.311 32.8739 11.0507 32.0266 10.9802 30.4666C10.9039 28.7794 10.8878 28.2733 10.8895 24.0012C10.8913 19.729 10.9078 19.2229 10.9855 17.5358C11.0572 15.9759 11.3182 15.1288 11.5376 14.5651C11.8281 13.8184 12.1751 13.2855 12.7352 12.7259C13.2953 12.1662 13.8284 11.8197 14.5754 11.5298C15.1393 11.3109 15.9866 11.0506 17.5466 10.9801C19.2338 10.9038 19.7398 10.8877 24.012 10.8894V10.8894Z" fill="white"/>
<path fill-rule="evenodd" clip-rule="evenodd" d="M24.0044 29.34C21.0588 29.3388 18.672 26.95 18.6732 24.0045C18.6744 21.059 21.0632 18.6721 24.0088 18.6733C26.9543 18.6745 29.3411 21.0633 29.3399 24.0089C29.3387 26.9544 26.9499 29.3412 24.0044 29.34ZM24.0099 15.7905C19.4722 15.7886 15.7922 19.4656 15.7903 24.0034C15.7885 28.541 19.4655 32.221 24.0032 32.2229C28.5409 32.2247 32.2209 28.5477 32.2228 24.0101C32.2246 19.4723 28.5476 15.7923 24.0099 15.7905V15.7905Z" fill="white"/>
<path fill-rule="evenodd" clip-rule="evenodd" d="M34.4711 15.4704C34.4706 16.5308 33.6106 17.3901 32.5502 17.3896C31.4899 17.3892 30.6306 16.5293 30.6311 15.4689C30.6315 14.4085 31.4915 13.5492 32.5518 13.5496C33.6122 13.55 34.4715 14.41 34.4711 15.4704" fill="white"/>
<defs>
<radialGradient id="paint0_radial_481_9297" cx="0" cy="0" r="1" gradientUnits="userSpaceOnUse" gradientTransform="translate(24.0097 24.0098) rotate(90) scale(24)">
<stop stop-color="#C6A000" stop-opacity="0"/>
<stop offset="1" stop-color="#1E1E1E"/>
</radialGradient>
</defs>
</svg>
