<svg width="49" height="49" viewBox="0 0 49 49" fill="none" xmlns="http://www.w3.org/2000/svg">
<circle cx="24.0097" cy="24.0098" r="24" transform="rotate(0.0234016 24.0097 24.0098)" fill="url(#paint0_radial_481_9296)"/>
<path fill-rule="evenodd" clip-rule="evenodd" d="M10.2639 31.7843L8.00011 40L16.4476 37.7988C18.7832 39.0663 21.4005 39.731 24.0605 39.7322L24.0674 39.7322C32.8484 39.7358 39.9994 32.6242 40.0067 23.8818C40.0101 19.6737 38.3339 15.6368 35.3469 12.6594C32.3599 9.68205 28.3069 8.00831 24.08 8.00656C15.2973 8.00298 8.14756 15.113 8.14047 23.856C8.13592 26.6386 8.86833 29.3733 10.2639 31.7843ZM17.3238 35.2138L16.8401 34.9281L11.8274 36.2343L13.1674 31.3715L12.8524 30.8728C11.527 28.7714 10.8261 26.3394 10.8308 23.8581C10.8367 16.5913 16.7795 10.6819 24.0842 10.6848C31.398 10.6908 37.3223 16.5981 37.3164 23.8794C37.3104 31.1467 31.3674 37.0569 24.0685 37.0539L24.0633 37.0539C21.6917 37.0531 19.3639 36.4176 17.3238 35.2138Z" fill="url(#paint1_linear_481_9296)"/>
<path fill-rule="evenodd" clip-rule="evenodd" d="M20.0944 17.2325C19.7967 16.5724 19.4825 16.5591 19.1988 16.5477C18.9668 16.5377 18.7011 16.5382 18.4359 16.5381C18.028 16.5486 17.6429 16.7282 17.3738 17.0335C17.0087 17.43 15.9797 18.3883 15.9789 20.3382C15.9781 22.2881 17.4041 24.1732 17.6029 24.4381C17.8017 24.7031 20.3552 28.8329 24.401 30.4232C27.7634 31.7448 28.4478 31.4825 29.1779 31.4167C29.9079 31.351 31.5335 30.4594 31.8658 29.5338C32.198 28.6081 32.1982 27.8151 32.0988 27.6496C31.9993 27.4841 31.7339 27.3852 31.3358 27.1869C30.9377 26.9885 28.981 26.0288 28.616 25.8965C28.2511 25.7641 27.9857 25.698 27.7201 26.0947C27.4545 26.4915 26.6916 27.3832 26.459 27.6473C26.2263 27.9114 25.9943 27.945 25.5962 27.7466C25.1981 27.5483 23.9158 27.1291 22.3956 25.7783C21.2126 24.7274 20.4141 23.4298 20.182 23.0329C19.95 22.636 20.1574 22.4218 20.3572 22.2243C20.536 22.0469 20.7555 21.7618 20.9547 21.5305C21.1539 21.2991 21.2198 21.134 21.3527 20.8698C21.4856 20.6055 21.4192 20.3737 21.3198 20.1755C21.2203 19.9772 20.448 18.0164 20.0944 17.2325Z" fill="white"/>
<defs>
<radialGradient id="paint0_radial_481_9296" cx="0" cy="0" r="1" gradientUnits="userSpaceOnUse" gradientTransform="translate(24.0097 24.0098) rotate(90) scale(24)">
<stop stop-color="#C6A000" stop-opacity="0"/>
<stop offset="1" stop-color="#1E1E1E"/>
</radialGradient>
<linearGradient id="paint1_linear_481_9296" x1="40.0001" y1="40.0131" x2="40.0132" y2="8.01307" gradientUnits="userSpaceOnUse">
<stop stop-color="#F9F9F9"/>
<stop offset="1" stop-color="white"/>
</linearGradient>
</defs>
</svg>
