<svg width="49" height="49" viewBox="0 0 49 49" fill="none" xmlns="http://www.w3.org/2000/svg">
<circle cx="24.0097" cy="24.0098" r="24" transform="rotate(0.0234016 24.0097 24.0098)" fill="url(#paint0_radial_481_9298)"/>
<path fill-rule="evenodd" clip-rule="evenodd" d="M33.1941 30.5712L34.2611 23.6338L27.6044 23.6311L27.6063 19.1289C27.6071 17.2309 28.5376 15.3812 31.5192 15.3824L34.5457 15.3836L34.5481 9.47715C34.5481 9.47715 31.8016 9.00726 29.1757 9.00619C23.6932 9.00395 20.1086 12.3251 20.1062 18.3404L20.104 23.6281L14.0099 23.6256L14.0071 30.5633L20.1012 30.5658L20.0943 47.3374C21.3162 47.5296 22.5686 47.63 23.8444 47.6305C25.1202 47.6311 26.3727 47.5317 27.5948 47.3405L27.6016 30.5689L33.1941 30.5712" fill="white"/>
<defs>
<radialGradient id="paint0_radial_481_9298" cx="0" cy="0" r="1" gradientUnits="userSpaceOnUse" gradientTransform="translate(24.0097 24.0098) rotate(90) scale(24)">
<stop stop-color="#C6A000" stop-opacity="0"/>
<stop offset="1" stop-color="#1E1E1E"/>
</radialGradient>
</defs>
</svg>
