<svg width="49" height="49" viewBox="0 0 49 49" fill="none" xmlns="http://www.w3.org/2000/svg">
<circle cx="24.0488" cy="24.0098" r="24" transform="rotate(0.0234016 24.0488 24.0098)" fill="url(#paint0_linear_12_389)"/>
<path fill-rule="evenodd" clip-rule="evenodd" d="M24.0555 8.00946C19.7101 8.00769 19.1652 8.02589 17.4586 8.10305C15.7556 8.18003 14.5923 8.45006 13.5745 8.8452C12.5222 9.25359 11.6297 9.80032 10.7397 10.6894C9.84989 11.5786 9.30243 12.4707 8.89318 13.5227C8.49721 14.5402 8.22623 15.7032 8.14786 17.4062C8.0693 19.1127 8.05066 19.6576 8.04888 24.003C8.04711 28.3483 8.06531 28.8931 8.14247 30.5997C8.21945 32.3028 8.48948 33.466 8.88462 34.4839C9.29301 35.5362 9.83974 36.4287 10.7289 37.3186C11.6181 38.2085 12.5101 38.7559 13.5621 39.1652C14.5796 39.5611 15.7426 39.8321 17.4456 39.9105C19.1521 39.989 19.697 40.0077 24.0424 40.0095C28.3877 40.0112 28.9326 39.993 30.6392 39.9159C32.3422 39.8389 33.5054 39.5689 34.5233 39.1738C35.5756 38.7653 36.4681 38.2186 37.358 37.3295C38.2479 36.4403 38.7953 35.5482 39.2047 34.4963C39.6006 33.4787 39.8715 32.3157 39.9499 30.6127C40.0285 28.9062 40.0471 28.3613 40.0489 24.016C40.0507 19.6707 40.0325 19.1258 39.9553 17.4192C39.8783 15.7161 39.6083 14.5529 39.2132 13.535C38.8048 12.4827 38.258 11.5902 37.3689 10.7003C36.4797 9.81047 35.5877 9.26301 34.5357 8.85376C33.5181 8.45779 32.3551 8.18681 30.6522 8.10844C28.9456 8.02988 28.4008 8.01124 24.0555 8.00946ZM24.0543 10.8923C28.3264 10.8941 28.8325 10.9106 30.5196 10.9883C32.0795 11.0601 32.9266 11.3211 33.4903 11.5404C34.237 11.831 34.7699 12.1779 35.3295 12.738C35.8892 13.2981 36.2357 13.8313 36.5257 14.5782C36.7445 15.1421 37.0049 15.9894 37.0753 17.5494C37.1516 19.2366 37.1678 19.7426 37.166 24.0149C37.1643 28.287 37.1477 28.7931 37.0701 30.4802C36.9983 32.0401 36.7373 32.8872 36.5179 33.4509C36.2274 34.1976 35.8805 34.7305 35.3203 35.2901C34.7602 35.8498 34.2271 36.1963 33.4801 36.4862C32.9162 36.7051 32.0689 36.9654 30.5089 37.0359C28.822 37.1122 28.316 37.1283 24.0436 37.1266C19.771 37.1248 19.2651 37.1083 17.5782 37.0306C16.0182 36.9589 15.1712 36.6979 14.6074 36.4785C13.8607 36.188 13.3279 35.841 12.7682 35.2809C12.2086 34.7208 11.8621 34.1877 11.5721 33.4407C11.3532 32.8768 11.0929 32.0295 11.0224 30.4695C10.9461 28.7823 10.93 28.2763 10.9318 24.0041C10.9335 19.7319 10.95 19.2259 11.0277 17.5388C11.0995 15.9788 11.3605 15.1317 11.5798 14.568C11.8704 13.8213 12.2173 13.2885 12.7775 12.7288C13.3375 12.1691 13.8707 11.8226 14.6176 11.5327C15.1815 11.3138 16.0288 11.0535 17.5888 10.983C19.276 10.9067 19.7821 10.8906 24.0543 10.8923Z" fill="white"/>
<path fill-rule="evenodd" clip-rule="evenodd" d="M24.0466 29.3429C21.1011 29.3417 18.7143 26.953 18.7155 24.0075C18.7167 21.0619 21.1054 18.6751 24.051 18.6763C26.9965 18.6775 29.3833 21.0663 29.3821 24.0118C29.3809 26.9573 26.9921 29.3441 24.0466 29.3429ZM24.0522 15.7934C19.5144 15.7915 15.8344 19.4685 15.8326 24.0063C15.8307 28.544 19.5077 32.224 24.0455 32.2258C28.5832 32.2277 32.2631 28.5507 32.265 24.013C32.2669 19.4752 28.5899 15.7952 24.0522 15.7934Z" fill="white"/>
<path fill-rule="evenodd" clip-rule="evenodd" d="M34.5133 15.4734C34.5129 16.5338 33.6529 17.393 32.5925 17.3925C31.5321 17.3921 30.6729 16.5322 30.6733 15.4718C30.6737 14.4114 31.5337 13.5521 32.594 13.5525C33.6544 13.553 34.5137 14.413 34.5133 15.4734Z" fill="white"/>
<defs>
<linearGradient id="paint0_linear_12_389" x1="24.0488" y1="72.0098" x2="72.0488" y2="24.0098" gradientUnits="userSpaceOnUse">
<stop stop-color="#FFD522"/>
<stop offset="0.497382" stop-color="#F1000B"/>
<stop offset="1" stop-color="#B900B3"/>
</linearGradient>
</defs>
</svg>
