<svg width="49" height="49" viewBox="0 0 49 49" fill="#ff6900" xmlns="http://www.w3.org/2000/svg">
<circle cx="24.0879" cy="24.0098" r="24" transform="rotate(0.0234016 24.0879 24.0098)" fill="#ff6900"/>
<path d="M37.0814 35.0151L32.1122 35.0131L32.1154 27.2176C32.1161 25.3586 32.084 22.9656 29.5327 22.9646C26.9445 22.9635 26.5477 24.9887 26.5468 27.0799L26.5436 35.0102L21.5746 35.0082L21.5811 18.9775L26.3514 18.9794L26.3505 21.1701L26.4174 21.1702C27.3894 19.507 29.2024 18.5104 31.1251 18.5827C36.1615 18.5848 37.0888 21.9036 37.0871 26.2209L37.0814 35.0151Z" fill="white"/>
<path d="M15.9752 16.7834C15.9749 16.7834 15.9747 16.7834 15.9746 16.7834C14.3926 16.7827 13.0914 15.4783 13.0921 13.8936C13.0927 12.3089 14.395 11.0054 15.9769 11.0061C17.5587 11.0067 18.8598 12.311 18.8594 13.8954C18.8594 13.8955 18.8594 13.8957 18.8594 13.896C18.8588 15.4804 17.5568 16.7839 15.9752 16.7834Z" fill="white"/>
<path d="M18.4523 35.007L13.4781 35.005L13.4846 18.9736L18.4589 18.9757L18.4523 35.007Z" fill="white"/>
</svg>
