<svg width="49" height="49" viewBox="0 0 49 49" fill="none" xmlns="http://www.w3.org/2000/svg">
<circle cx="24.0293" cy="24.0098" r="24" transform="rotate(0.0234016 24.0293 24.0098)" fill="url(#paint0_linear_12_388)"/>
<path fill-rule="evenodd" clip-rule="evenodd" d="M10.2866 31.7872L8.02282 40.0029L16.4703 37.8018C18.8059 39.0692 21.4232 39.7339 24.0832 39.7352L24.0901 39.7352C32.8711 39.7388 40.0221 32.6272 40.0294 23.8847C40.0328 19.6767 38.3566 15.6397 35.3696 12.6623C32.3826 9.68498 28.3296 8.01124 24.1027 8.00949C15.32 8.0059 8.17026 15.116 8.16318 23.8589C8.15862 26.6415 8.89103 29.3762 10.2866 31.7872ZM17.3465 35.2167L16.8628 34.931L11.8501 36.2372L13.1901 31.3744L12.8751 30.8757C11.5497 28.7743 10.8488 26.3423 10.8535 23.861C10.8594 16.5942 16.8022 10.6848 24.1069 10.6878C31.4207 10.6937 37.345 16.6011 37.3391 23.8823C37.3331 31.1496 31.3901 37.0598 24.0912 37.0568L24.086 37.0568C21.7144 37.0561 19.3867 36.4205 17.3465 35.2167Z" fill="url(#paint1_linear_12_388)"/>
<path fill-rule="evenodd" clip-rule="evenodd" d="M20.1171 17.2355C19.8195 16.5754 19.5052 16.562 19.2215 16.5506C18.9895 16.5407 18.7238 16.5412 18.4586 16.541C18.0507 16.5515 17.6656 16.7311 17.3965 17.0365C17.0314 17.4329 16.0024 18.3912 16.0016 20.3412C16.0008 22.2911 17.4268 24.1761 17.6256 24.4411C17.8244 24.706 20.3779 28.8358 24.4237 30.4261C27.7861 31.7477 28.4705 31.4854 29.2006 31.4197C29.9306 31.354 31.5562 30.4624 31.8885 29.5367C32.2207 28.6111 32.2209 27.8181 32.1215 27.6525C32.022 27.487 31.7566 27.3882 31.3585 27.1898C30.9604 26.9915 29.0037 26.0317 28.6387 25.8994C28.2738 25.7671 28.0084 25.7009 27.7428 26.0977C27.4772 26.4944 26.7143 27.3861 26.4817 27.6502C26.249 27.9143 26.017 27.9479 25.6189 27.7496C25.2209 27.5512 23.9385 27.132 22.4183 25.7812C21.2353 24.7303 20.4368 23.4327 20.2047 23.0358C19.9727 22.639 20.1801 22.4247 20.3799 22.2272C20.5587 22.0498 20.7782 21.7648 20.9774 21.5334C21.1766 21.3021 21.2426 21.1369 21.3754 20.8727C21.5083 20.6085 21.4419 20.3766 21.3425 20.1784C21.243 19.9801 20.4707 18.0193 20.1171 17.2355Z" fill="white"/>
<defs>
<linearGradient id="paint0_linear_12_388" x1="48.0293" y1="48.0098" x2="48.0293" y2="0.00980186" gradientUnits="userSpaceOnUse">
<stop stop-color="#20B038"/>
<stop offset="1" stop-color="#60D66A"/>
</linearGradient>
<linearGradient id="paint1_linear_12_388" x1="40.0228" y1="40.016" x2="40.0359" y2="8.016" gradientUnits="userSpaceOnUse">
<stop stop-color="#F9F9F9"/>
<stop offset="1" stop-color="white"/>
</linearGradient>
</defs>
</svg>
