<svg width="27" height="24" viewBox="0 0 27 24" fill="none" xmlns="http://www.w3.org/2000/svg">
<path d="M20.3592 -1.32679e-06C22.3981 -1.50503e-06 24.0291 0.740736 25.2524 2.22222C26.4175 3.76296 27 5.74815 27 8.17778C27 11.4963 26.1262 14.4889 24.3786 17.1556C22.5728 19.8815 19.835 22.163 16.165 24L15.2039 22.5778C16.9515 21.5111 18.5534 20 20.0097 18.0444C21.4078 16.1481 22.1068 14.2222 22.1068 12.2667C22.1068 11.7333 21.9612 11.2889 21.6699 10.9333C21.3786 10.637 20.9417 10.4889 20.3592 10.4889C18.9029 10.4889 17.6796 9.95555 16.6893 8.88889C15.6408 7.88148 15.1165 6.63703 15.1165 5.15555C15.1165 3.67407 15.6408 2.42963 16.6893 1.42222C17.6796 0.47407 18.9029 -1.19948e-06 20.3592 -1.32679e-06ZM5.24272 -5.26677e-09C7.28155 -1.83507e-07 8.91262 0.740738 10.1359 2.22222C11.301 3.76296 11.8835 5.74815 11.8835 8.17778C11.8835 11.4963 11.0097 14.4889 9.26214 17.1556C7.45631 19.8815 4.71845 22.163 1.04854 24L0.0873793 22.5778C1.83495 21.5111 3.43689 20 4.8932 18.0444C6.29126 16.1482 6.99029 14.2222 6.99029 12.2667C6.99029 11.7333 6.84466 11.2889 6.5534 10.9333C6.26213 10.637 5.82524 10.4889 5.24272 10.4889C3.78641 10.4889 2.56311 9.95556 1.57282 8.88889C0.524272 7.88148 3.8943e-07 6.63704 2.59914e-07 5.15555C1.30399e-07 3.67407 0.524271 2.42963 1.57281 1.42222C2.5631 0.474072 3.78641 1.22048e-07 5.24272 -5.26677e-09Z" fill="#E3E3E3"/>
</svg>
