<svg width="27" height="24" viewBox="0 0 27 24" fill="none" xmlns="http://www.w3.org/2000/svg">
<path d="M6.64078 24C4.60194 24 2.97087 23.2593 1.74757 21.7778C0.582524 20.237 0 18.2519 0 15.8222C0 12.5037 0.873786 9.51111 2.62136 6.84444C4.42718 4.11852 7.16505 1.83703 10.835 0L11.7961 1.42222C10.0485 2.48889 8.4466 4 6.99029 5.95555C5.59223 7.85185 4.8932 9.77778 4.8932 11.7333C4.8932 12.2667 5.03884 12.7111 5.3301 13.0667C5.62136 13.363 6.05825 13.5111 6.64078 13.5111C8.09709 13.5111 9.32039 14.0444 10.3107 15.1111C11.3592 16.1185 11.8835 17.363 11.8835 18.8444C11.8835 20.3259 11.3592 21.5704 10.3107 22.5778C9.32039 23.5259 8.09709 24 6.64078 24ZM21.7573 24C19.7184 24 18.0874 23.2593 16.8641 21.7778C15.699 20.237 15.1165 18.2519 15.1165 15.8222C15.1165 12.5037 15.9903 9.51111 17.7379 6.84444C19.5437 4.11852 22.2816 1.83703 25.9515 0L26.9126 1.42222C25.165 2.48889 23.5631 4 22.1068 5.95555C20.7087 7.85185 20.0097 9.77778 20.0097 11.7333C20.0097 12.2667 20.1553 12.7111 20.4466 13.0667C20.7379 13.363 21.1748 13.5111 21.7573 13.5111C23.2136 13.5111 24.4369 14.0444 25.4272 15.1111C26.4757 16.1185 27 17.363 27 18.8444C27 20.3259 26.4757 21.5704 25.4272 22.5778C24.4369 23.5259 23.2136 24 21.7573 24Z" fill="#ff6900"/>
</svg>
