<svg width="17" height="17" viewBox="0 0 17 17" fill="none" xmlns="http://www.w3.org/2000/svg">
<path d="M1.80841 7.51555C1.34408 7.33497 1.11191 7.24469 1.04413 7.11459C0.985366 7.00181 0.985287 6.86746 1.04391 6.75462C1.11154 6.62444 1.34361 6.53388 1.80773 6.35276L14.9793 1.21265C15.3982 1.04915 15.6077 0.9674 15.7416 1.01212C15.8578 1.05095 15.949 1.14218 15.9879 1.25843C16.0326 1.39229 15.9508 1.60178 15.7873 2.02075L10.6472 15.1923C10.4661 15.6564 10.3756 15.8885 10.2454 15.9561C10.1325 16.0147 9.99819 16.0146 9.88541 15.9559C9.75531 15.8881 9.66503 15.6559 9.48445 15.1916L7.43467 9.92071C7.39801 9.82646 7.37968 9.77933 7.35138 9.73965C7.32629 9.70447 7.29553 9.67371 7.26035 9.64862C7.22067 9.62032 7.17354 9.60199 7.07929 9.56533L1.80841 7.51555Z" stroke="#1E1E1E" stroke-width="2" stroke-linecap="round" stroke-linejoin="round"/>
</svg>
