<svg width="49" height="49" viewBox="0 0 49 49" fill="none" xmlns="http://www.w3.org/2000/svg">
<circle cx="24.0097" cy="24.0098" r="24" transform="rotate(0.0234016 24.0097 24.0098)" fill="url(#paint0_radial_480_9264)"/>
<path d="M36.7364 17.4873C36.7558 17.7694 36.7557 18.0515 36.7556 18.3361C36.752 27.0105 30.1439 37.012 18.068 37.007L18.068 37.0018C14.5007 37.0056 11.008 35.9824 8.00572 34.0547C8.5244 34.1173 9.0457 34.1487 9.56831 34.1502C12.5246 34.1541 15.3967 33.1634 17.7232 31.338C14.9139 31.2835 12.4511 29.4509 11.5916 26.7766C12.5756 26.9668 13.5896 26.9282 14.5556 26.6648C11.493 26.0447 9.29061 23.353 9.29189 20.228C9.2919 20.1994 9.29191 20.1721 9.29192 20.1448C10.2043 20.6535 11.226 20.936 12.2712 20.9676C9.38728 19.0386 8.49963 15.2009 10.2429 12.2014C13.5745 16.304 18.4914 18.7993 23.7707 19.0653C23.2425 16.785 23.9663 14.3961 25.6726 12.794C28.3178 10.3096 32.4766 10.4387 34.9611 13.0824C36.4316 12.7932 37.841 12.2543 39.1309 11.4904C38.6402 13.0099 37.614 14.3003 36.2434 15.1199C37.5448 14.9671 38.8163 14.6192 40.0139 14.088C39.1319 15.4084 38.0212 16.5584 36.7364 17.4873Z" fill="white"/>
<defs>
<radialGradient id="paint0_radial_480_9264" cx="0" cy="0" r="1" gradientUnits="userSpaceOnUse" gradientTransform="translate(24.0097 24.0098) rotate(90) scale(24)">
<stop stop-color="#C6A000" stop-opacity="0"/>
<stop offset="1" stop-color="#1E1E1E"/>
</radialGradient>
</defs>
</svg>
